HIERARCHY
ROOT mixamorig:Hips
{
	OFFSET 0.000000 201.639420 0.000000
	CHANNELS 6 Xposition Yposition Zposition Xrotation Yrotation Zrotation
	JOINT mixamorig:Spine
	{
		OFFSET 0.006200 19.524994 -2.481800
		CHANNELS 3 Xrotation Yrotation Zrotation
		JOINT mixamorig:Spine1
		{
			OFFSET -0.000900 22.835007 -2.825400
			CHANNELS 3 Xrotation Yrotation Zrotation
			JOINT mixamorig:Spine2
			{
				OFFSET -0.020600 26.552490 -3.193300
				CHANNELS 3 Xrotation Yrotation Zrotation
				JOINT mixamorig:Neck
				{
					OFFSET -0.060000 30.701813 1.352200
					CHANNELS 3 Xrotation Yrotation Zrotation
					JOINT mixamorig:Head
					{
						OFFSET -0.087200 22.547607 3.670900
						CHANNELS 3 Xrotation Yrotation Zrotation
						JOINT mixamorig:HeadTop_End
						{
							OFFSET -0.830600 40.355194 7.893500
							CHANNELS 3 Xrotation Yrotation Zrotation
							End Site
							{
								OFFSET 0.000000 30.592346 0.000000
							}
						}
						JOINT mixamorig:RightEye
						{
							OFFSET -6.302100 18.118591 16.197100
							CHANNELS 3 Xrotation Yrotation Zrotation
							End Site
							{
								OFFSET 0.000000 30.592346 0.000000
							}
						}
						JOINT mixamorig:LeftEye
						{
							OFFSET 6.741500 18.382690 16.401899
							CHANNELS 3 Xrotation Yrotation Zrotation
							End Site
							{
								OFFSET 0.000000 30.592346 0.000000
							}
						}
					}
				}
				JOINT mixamorig:LeftShoulder
				{
					OFFSET 11.924900 18.230499 1.425400
					CHANNELS 3 Xrotation Yrotation Zrotation
					JOINT mixamorig:LeftArm
					{
						OFFSET 25.435989 -0.697632 -5.229300
						CHANNELS 3 Xrotation Yrotation Zrotation
						JOINT mixamorig:LeftForeArm
						{
							OFFSET 54.684776 0.000000 0.000000
							CHANNELS 3 Xrotation Yrotation Zrotation
							JOINT mixamorig:LeftHand
							{
								OFFSET 55.098175 0.000000 0.000000
								CHANNELS 3 Xrotation Yrotation Zrotation
								JOINT mixamorig:LeftHandMiddle1
								{
									OFFSET 23.369751 0.000000 0.000000
									CHANNELS 3 Xrotation Yrotation Zrotation
									JOINT mixamorig:LeftHandMiddle2
									{
										OFFSET 6.378677 0.000000 0.000000
										CHANNELS 3 Xrotation Yrotation Zrotation
										JOINT mixamorig:LeftHandMiddle3
										{
											OFFSET 6.148331 0.000000 0.000000
											CHANNELS 3 Xrotation Yrotation Zrotation
											JOINT mixamorig:LeftHandMiddle4
											{
												OFFSET 6.582504 0.000000 0.000000
												CHANNELS 3 Xrotation Yrotation Zrotation
												End Site
												{
													OFFSET -1.168900 6.395691 1.028606
												}
											}
										}
									}
								}
								JOINT mixamorig:LeftHandThumb1
								{
									OFFSET 7.235672 -3.848206 5.434273
									CHANNELS 3 Xrotation Yrotation Zrotation
									JOINT mixamorig:LeftHandThumb2
									{
										OFFSET 6.568451 -3.792297 3.792300
										CHANNELS 3 Xrotation Yrotation Zrotation
										JOINT mixamorig:LeftHandThumb3
										{
											OFFSET 6.063080 -3.500519 3.500518
											CHANNELS 3 Xrotation Yrotation Zrotation
											JOINT mixamorig:LeftHandThumb4
											{
												OFFSET 4.793182 -2.767334 2.767349
												CHANNELS 3 Xrotation Yrotation Zrotation
												End Site
												{
													OFFSET 0.101639 6.054260 1.275483
												}
											}
										}
									}
								}
								JOINT mixamorig:LeftHandIndex1
								{
									OFFSET 23.101074 -0.309540 4.992809
									CHANNELS 3 Xrotation Yrotation Zrotation
									JOINT mixamorig:LeftHandIndex2
									{
										OFFSET 6.226883 0.000000 0.000000
										CHANNELS 3 Xrotation Yrotation Zrotation
										JOINT mixamorig:LeftHandIndex3
										{
											OFFSET 6.094330 0.000000 0.000000
											CHANNELS 3 Xrotation Yrotation Zrotation
											JOINT mixamorig:LeftHandIndex4
											{
												OFFSET 5.482605 0.000000 0.000000
												CHANNELS 3 Xrotation Yrotation Zrotation
												End Site
												{
													OFFSET -1.427902 5.233032 0.797164
												}
											}
										}
									}
								}
								JOINT mixamorig:LeftHandRing1
								{
									OFFSET 22.299240 0.021149 -3.964172
									CHANNELS 3 Xrotation Yrotation Zrotation
									JOINT mixamorig:LeftHandRing2
									{
										OFFSET 6.321869 0.000000 0.000000
										CHANNELS 3 Xrotation Yrotation Zrotation
										JOINT mixamorig:LeftHandRing3
										{
											OFFSET 5.899796 0.000000 0.000000
											CHANNELS 3 Xrotation Yrotation Zrotation
											JOINT mixamorig:LeftHandRing4
											{
												OFFSET 6.517899 0.000000 0.000000
												CHANNELS 3 Xrotation Yrotation Zrotation
												End Site
												{
													OFFSET -1.637299 6.232208 0.980890
												}
											}
										}
									}
								}
								JOINT mixamorig:LeftHandPinky1
								{
									OFFSET 20.463791 -0.302338 -8.562233
									CHANNELS 3 Xrotation Yrotation Zrotation
									JOINT mixamorig:LeftHandPinky2
									{
										OFFSET 6.908646 0.000000 0.000000
										CHANNELS 3 Xrotation Yrotation Zrotation
										JOINT mixamorig:LeftHandPinky3
										{
											OFFSET 4.622849 0.000000 0.000000
											CHANNELS 3 Xrotation Yrotation Zrotation
											JOINT mixamorig:LeftHandPinky4
											{
												OFFSET 5.216080 0.000000 0.000000
												CHANNELS 3 Xrotation Yrotation Zrotation
												End Site
												{
													OFFSET -0.606308 5.116241 0.814926
												}
											}
										}
									}
								}
							}
						}
					}
				}
				JOINT mixamorig:RightShoulder
				{
					OFFSET -12.001300 18.284088 1.348900
					CHANNELS 3 Xrotation Yrotation Zrotation
					JOINT mixamorig:RightArm
					{
						OFFSET -25.308500 -0.751312 -5.164599
						CHANNELS 3 Xrotation Yrotation Zrotation
						JOINT mixamorig:RightForeArm
						{
							OFFSET -54.684429 0.000000 0.000000
							CHANNELS 3 Xrotation Yrotation Zrotation
							JOINT mixamorig:RightHand
							{
								OFFSET -55.150291 0.000000 0.000000
								CHANNELS 3 Xrotation Yrotation Zrotation
								JOINT mixamorig:RightHandMiddle1
								{
									OFFSET -23.317566 0.000000 0.000000
									CHANNELS 3 Xrotation Yrotation Zrotation
									JOINT mixamorig:RightHandMiddle2
									{
										OFFSET -6.378403 0.000000 0.000000
										CHANNELS 3 Xrotation Yrotation Zrotation
										JOINT mixamorig:RightHandMiddle3
										{
											OFFSET -6.148193 0.000000 0.000000
											CHANNELS 3 Xrotation Yrotation Zrotation
											JOINT mixamorig:RightHandMiddle4
											{
												OFFSET -6.583389 0.000000 0.000000
												CHANNELS 3 Xrotation Yrotation Zrotation
												End Site
												{
													OFFSET 1.171692 6.395905 1.029786
												}
											}
										}
									}
								}
								JOINT mixamorig:RightHandThumb1
								{
									OFFSET -7.190521 -3.860474 5.435846
									CHANNELS 3 Xrotation Yrotation Zrotation
									JOINT mixamorig:RightHandThumb2
									{
										OFFSET -6.567429 -3.791718 3.791708
										CHANNELS 3 Xrotation Yrotation Zrotation
										JOINT mixamorig:RightHandThumb3
										{
											OFFSET -6.062469 -3.500153 3.500166
											CHANNELS 3 Xrotation Yrotation Zrotation
											JOINT mixamorig:RightHandThumb4
											{
												OFFSET -4.792618 -2.767029 2.767022
												CHANNELS 3 Xrotation Yrotation Zrotation
												End Site
												{
													OFFSET -0.100327 6.053253 1.276754
												}
											}
										}
									}
								}
								JOINT mixamorig:RightHandIndex1
								{
									OFFSET -23.048981 -0.310791 4.992554
									CHANNELS 3 Xrotation Yrotation Zrotation
									JOINT mixamorig:RightHandIndex2
									{
										OFFSET -6.227539 0.000000 0.000000
										CHANNELS 3 Xrotation Yrotation Zrotation
										JOINT mixamorig:RightHandIndex3
										{
											OFFSET -6.095047 0.000000 0.000000
											CHANNELS 3 Xrotation Yrotation Zrotation
											JOINT mixamorig:RightHandIndex4
											{
												OFFSET -5.484772 0.000000 0.000000
												CHANNELS 3 Xrotation Yrotation Zrotation
												End Site
												{
													OFFSET 1.420593 5.237305 0.797056
												}
											}
										}
									}
								}
								JOINT mixamorig:RightHandRing1
								{
									OFFSET -22.246323 0.020569 -3.963762
									CHANNELS 3 Xrotation Yrotation Zrotation
									JOINT mixamorig:RightHandRing2
									{
										OFFSET -6.322128 0.000000 0.000000
										CHANNELS 3 Xrotation Yrotation Zrotation
										JOINT mixamorig:RightHandRing3
										{
											OFFSET -5.900024 0.000000 0.000000
											CHANNELS 3 Xrotation Yrotation Zrotation
											JOINT mixamorig:RightHandRing4
											{
												OFFSET -6.518356 0.000000 0.000000
												CHANNELS 3 Xrotation Yrotation Zrotation
												End Site
												{
													OFFSET 1.636398 6.232697 0.982186
												}
											}
										}
									}
								}
								JOINT mixamorig:RightHandPinky1
								{
									OFFSET -20.411011 -0.303314 -8.561701
									CHANNELS 3 Xrotation Yrotation Zrotation
									JOINT mixamorig:RightHandPinky2
									{
										OFFSET -6.907349 0.000000 0.000000
										CHANNELS 3 Xrotation Yrotation Zrotation
										JOINT mixamorig:RightHandPinky3
										{
											OFFSET -4.623840 0.000000 0.000000
											CHANNELS 3 Xrotation Yrotation Zrotation
											JOINT mixamorig:RightHandPinky4
											{
												OFFSET -5.218353 0.000000 0.000000
												CHANNELS 3 Xrotation Yrotation Zrotation
												End Site
												{
													OFFSET 0.602097 5.118835 0.816273
												}
											}
										}
									}
								}
							}
						}
					}
				}
			}
		}
	}
	JOINT mixamorig:LeftUpLeg
	{
		OFFSET 18.168400 -13.561905 -0.039000
		CHANNELS 3 Xrotation Yrotation Zrotation
		JOINT mixamorig:LeftLeg
		{
			OFFSET 0.577358 -80.825211 -3.695000
			CHANNELS 3 Xrotation Yrotation Zrotation
			JOINT mixamorig:LeftFoot
			{
				OFFSET -0.577356 -83.370262 -6.520700
				CHANNELS 3 Xrotation Yrotation Zrotation
				JOINT mixamorig:LeftToeBase
				{
					OFFSET 0.750401 -20.798306 25.135401
					CHANNELS 3 Xrotation Yrotation Zrotation
					JOINT mixamorig:LeftToe_End
					{
						OFFSET -0.000500 0.001200 19.917799
						CHANNELS 3 Xrotation Yrotation Zrotation
						End Site
						{
							OFFSET 0.000000 19.917805 0.000000
						}
					}
				}
			}
		}
	}
	JOINT mixamorig:RightUpLeg
	{
		OFFSET -18.162500 -13.585098 -0.041000
		CHANNELS 3 Xrotation Yrotation Zrotation
		JOINT mixamorig:RightLeg
		{
			OFFSET -0.595024 -80.945297 -3.631900
			CHANNELS 3 Xrotation Yrotation Zrotation
			JOINT mixamorig:RightFoot
			{
				OFFSET 0.595024 -83.218193 -6.561200
				CHANNELS 3 Xrotation Yrotation Zrotation
				JOINT mixamorig:RightToeBase
				{
					OFFSET -0.753601 -20.807106 25.115000
					CHANNELS 3 Xrotation Yrotation Zrotation
					JOINT mixamorig:RightToe_End
					{
						OFFSET 0.000299 0.001700 19.918200
						CHANNELS 3 Xrotation Yrotation Zrotation
						End Site
						{
							OFFSET 0.000000 19.918203 0.000000
						}
					}
				}
			}
		}
	}
}
MOTION
Frames: 4
Frame Time: 0.033333
1.576702 94.395370 -3.149048 -40.567198 -32.649810 -19.880510 58.819704 2.782637 1.394598 10.734613 0.744711 -4.521334 17.520053 -0.085149 -4.562560 -10.626375 7.119774 2.460949 -15.542304 20.386163 10.545780 -0.000002 0.000000 -0.000000 -0.000002 0.000000 -0.000000 -0.000002 0.000000 -0.000000 -37.559043 -4.830593 1.310663 -73.285922 -19.463818 -69.165426 0.000035 -49.482644 0.000046 -122.217493 3.140002 22.355337 0.405915 5.507034 -52.453155 3.387127 5.308611 -65.057484 0.282023 1.797460 -17.832365 0.000003 -0.000000 0.000001 4.709213 9.560377 3.111988 19.473187 -1.474889 7.636921 -4.536177 -9.613104 1.492981 0.000003 0.000002 -0.000001 -0.212815 3.933705 -36.747125 2.942130 5.078910 -60.144610 0.513685 2.400823 -24.150512 0.000001 0.000001 0.000001 -0.074377 5.736801 -61.061427 4.055030 5.569515 -72.094928 0.582670 2.548979 -25.747996 -0.000001 0.000001 0.000002 -6.565573 4.545131 -72.425236 3.299629 5.267216 -64.107828 0.175340 1.424001 -14.038893 0.000001 0.000001 0.000001 -42.139822 -9.769748 -7.575439 -51.815622 45.272119 94.913845 -0.000155 103.657458 0.000164 -37.420018 -24.461419 -24.583524 3.413057 -7.186261 51.650246 6.296829 -4.359597 110.634673 0.248729 -1.503069 18.790262 0.000002 0.000001 -0.000000 8.377128 -4.904134 11.022002 21.620187 -18.183891 -18.379219 -0.702954 -49.821203 -32.535207 0.000000 0.000001 -0.000001 -0.920052 1.683590 12.434965 0.748115 -2.533472 32.898293 0.615653 -2.316063 29.767829 0.000001 0.000000 -0.000001 -3.349042 -2.600433 57.010561 5.440862 -4.590889 99.698168 1.689397 -3.590687 50.382224 0.000000 -0.000001 0.000001 -3.996455 -3.303940 64.593850 4.058850 -4.618646 82.610523 2.315532 -4.026773 59.787221 0.000000 0.000000 -0.000000 -71.049602 -3.347771 23.805824 121.038178 -8.911392 -0.502467 -15.042390 -5.641113 -0.544252 0.928071 0.000004 0.000000 0.000000 -0.000001 0.000000 -24.803204 22.573572 -4.675719 140.025585 6.373353 0.878529 -46.929851 -17.471880 23.442524 -33.674158 -0.000027 0.000006 0.000000 -0.000000 -0.000000 
2.217804 93.130814 -3.816490 -38.290307 -33.351476 -18.219413 56.457637 2.249566 1.338511 11.743373 0.630850 -4.114002 18.064013 -0.096153 -4.134743 -11.248731 7.480736 1.407428 -16.320812 20.684594 9.639367 -0.000002 -0.000001 -0.000000 -0.000002 -0.000001 -0.000000 -0.000002 -0.000001 -0.000000 -37.566252 -5.297254 0.464898 -69.016377 -15.931976 -66.389630 0.000008 -54.706615 -0.000003 -122.147292 2.292960 23.517610 0.405914 5.507036 -52.453155 3.387125 5.308613 -65.057477 0.282022 1.797460 -17.832369 0.000002 -0.000000 0.000002 4.737287 9.605858 3.113592 19.473187 -1.474888 7.636921 -4.536183 -9.613102 1.492980 -0.000002 0.000001 -0.000002 -0.204534 3.943606 -36.729547 2.942129 5.078909 -60.144610 0.513678 2.400822 -24.150514 -0.000006 0.000002 -0.000001 -0.074378 5.736803 -61.061427 4.053054 5.568869 -72.074273 0.582672 2.548978 -25.747996 0.000001 0.000002 0.000001 -6.613854 4.538414 -72.467255 3.294550 5.264757 -64.052530 0.171977 1.410477 -13.902703 -0.000001 0.000001 0.000002 -42.470321 -9.663086 -9.268479 -53.692120 48.392392 95.367609 0.000132 102.543139 -0.000143 -39.093356 -22.497532 -25.591886 3.413054 -7.186259 51.650242 6.296830 -4.359597 110.634673 0.248728 -1.503069 18.790262 0.000002 0.000000 -0.000000 8.377131 -4.904135 11.022002 21.620197 -18.183891 -18.379219 -0.702954 -49.821200 -32.535203 -0.000002 -0.000000 0.000001 -0.919074 1.685441 12.420022 0.744943 -2.528525 32.826296 0.615653 -2.316061 29.767822 0.000002 0.000001 -0.000002 -3.349044 -2.600432 57.010568 5.440863 -4.590890 99.698168 1.689396 -3.590686 50.382224 0.000000 -0.000000 0.000000 -3.996456 -3.303940 64.593857 4.058848 -4.618649 82.610516 2.315530 -4.026773 59.787221 -0.000001 -0.000000 0.000001 -74.556624 -3.150988 23.154299 121.266361 -8.444354 -0.516754 -13.857905 -5.442046 -0.504521 0.933268 0.000002 -0.000001 -0.000000 0.000002 0.000000 -28.329270 25.022174 -6.051160 141.275032 7.003165 1.843575 -45.681347 -16.403420 24.806877 -33.792668 0.000006 0.000001 0.000000 0.000001 -0.000000 
2.708313 92.807373 -4.809586 -35.577257 -34.490618 -16.348795 53.935924 1.470079 0.872239 12.801199 0.528575 -3.765255 18.623528 -0.098916 -3.772560 -12.020873 7.746310 0.578448 -17.440704 21.036231 8.938002 -0.000002 0.000000 -0.000001 -0.000002 0.000000 -0.000001 -0.000002 0.000000 -0.000001 -37.624128 -5.625886 0.275897 -65.225615 -12.396430 -64.044969 0.000060 -59.269547 0.000075 -122.837715 1.276220 23.678548 0.405914 5.507035 -52.453155 3.387122 5.308611 -65.057477 0.282022 1.797458 -17.832371 -0.000002 0.000001 0.000001 4.764748 9.651654 3.115039 19.473189 -1.474892 7.636922 -4.536181 -9.613102 1.492983 -0.000001 0.000002 -0.000001 -0.196222 3.953576 -36.712017 2.942131 5.078906 -60.144610 0.513681 2.400823 -24.150514 -0.000004 -0.000000 -0.000001 -0.074376 5.736804 -61.061427 4.051023 5.568229 -72.053660 0.582661 2.548973 -25.747993 0.000001 -0.000001 0.000002 -6.662468 4.531667 -72.509172 3.289426 5.262270 -63.996769 0.168646 1.396934 -13.766461 -0.000002 -0.000001 -0.000002 -42.711587 -9.428613 -10.601402 -55.779341 51.361950 95.634540 -0.000301 101.442912 0.000309 -40.235832 -20.647845 -26.117602 3.413055 -7.186260 51.650246 6.296830 -4.359599 110.634673 0.248728 -1.503070 18.790265 0.000002 -0.000000 -0.000000 8.377127 -4.904134 11.022003 21.620194 -18.183893 -18.379223 -0.702952 -49.821203 -32.535203 0.000001 0.000001 -0.000001 -0.918126 1.687262 12.405020 0.741766 -2.523606 32.754299 0.615652 -2.316062 29.767826 -0.000000 0.000000 -0.000000 -3.349042 -2.600431 57.010561 5.440862 -4.590892 99.698174 1.689395 -3.590686 50.382228 -0.000001 0.000001 -0.000003 -3.996454 -3.303940 64.593850 4.058849 -4.618649 82.610523 2.315532 -4.026772 59.787214 -0.000002 0.000000 -0.000002 -77.788376 -2.773542 23.090561 120.738975 -8.334486 -0.534144 -12.620338 -5.091168 -0.489109 0.895887 -0.000006 0.000002 0.000000 0.000000 0.000000 -32.979760 26.711389 -6.131216 142.211806 6.885895 2.529899 -44.322518 -15.990180 24.955209 -33.744642 0.000014 0.000006 -0.000000 -0.000001 -0.000000 
2.862556 93.748962 -6.135361 -32.298564 -35.907254 -14.305863 51.164636 0.646566 0.100885 13.838069 0.456892 -3.453320 19.127014 -0.075113 -3.456077 -12.693446 7.937040 -0.057269 -18.565057 21.457620 8.522967 -0.000000 -0.000001 -0.000003 -0.000000 -0.000001 -0.000003 -0.000000 -0.000001 -0.000003 -37.720194 -5.961344 0.516665 -62.038185 -9.074911 -62.276231 -0.000063 -62.824155 -0.000044 -123.718399 0.368718 23.153016 0.405915 5.507038 -52.453155 3.387124 5.308614 -65.057477 0.282017 1.797460 -17.832369 0.000002 -0.000001 0.000002 4.791480 9.697770 3.116341 19.473185 -1.474888 7.636920 -4.536177 -9.613101 1.492977 0.000000 -0.000002 0.000000 -0.187891 3.963552 -36.694529 2.942130 5.078904 -60.144610 0.513683 2.400823 -24.150514 0.000003 -0.000000 -0.000001 -0.074375 5.736805 -61.061434 4.049017 5.567596 -72.033005 0.582669 2.548976 -25.747998 -0.000003 -0.000001 0.000001 -6.711416 4.524839 -72.551034 3.284256 5.259767 -63.940488 0.165333 1.383387 -13.630177 -0.000002 -0.000001 -0.000001 -42.822899 -9.086674 -11.463085 -57.616662 54.020690 95.620381 0.000368 100.355116 -0.000383 -40.990708 -18.912536 -26.301836 3.413057 -7.186260 51.650246 6.296830 -4.359597 110.634673 0.248727 -1.503070 18.790264 0.000000 -0.000000 0.000001 8.377129 -4.904134 11.022001 21.620189 -18.183891 -18.379221 -0.702958 -49.821206 -32.535203 0.000000 -0.000002 -0.000003 -0.917147 1.689076 12.390036 0.738593 -2.518683 32.682267 0.615652 -2.316062 29.767826 0.000002 0.000000 0.000000 -3.349043 -2.600433 57.010564 5.440861 -4.590889 99.698168 1.689396 -3.590687 50.382221 -0.000001 0.000000 0.000000 -3.996455 -3.303941 64.593857 4.058848 -4.618648 82.610523 2.315531 -4.026773 59.787214 -0.000001 0.000001 -0.000002 -80.529173 -2.395502 23.627474 119.324771 -8.511170 -0.556282 -11.417293 -4.789554 -0.533376 0.775760 -0.000012 0.000004 0.000000 -0.000000 -0.000000 -38.788217 27.419357 -4.853664 142.506255 5.684283 3.039183 -42.037663 -15.940675 24.949428 -33.648616 0.000011 0.000001 0.000000 0.000000 0.000000 
